<svg width="1200" height="600" viewBox="0 0 1200 600" fill="none" xmlns="http://www.w3.org/2000/svg">
  <!-- Sky gradient -->
  <defs>
    <linearGradient id="skyGradient" x1="0%" y1="0%" x2="0%" y2="100%">
      <stop offset="0%" style="stop-color:#87CEEB;stop-opacity:1" />
      <stop offset="100%" style="stop-color:#E0F6FF;stop-opacity:1" />
    </linearGradient>
  </defs>
  
  <rect width="1200" height="600" fill="url(#skyGradient)"/>
  
  <!-- Buildings silhouette -->
  <rect x="0" y="400" width="150" height="200" fill="#2C3E50" opacity="0.7"/>
  <rect x="120" y="350" width="100" height="250" fill="#34495E" opacity="0.7"/>
  <rect x="200" y="380" width="80" height="220" fill="#2C3E50" opacity="0.7"/>
  <rect x="260" y="320" width="120" height="280" fill="#34495E" opacity="0.7"/>
  <rect x="360" y="360" width="90" height="240" fill="#2C3E50" opacity="0.7"/>
  <rect x="430" y="300" width="110" height="300" fill="#34495E" opacity="0.7"/>
  <rect x="520" y="340" width="100" height="260" fill="#2C3E50" opacity="0.7"/>
  <rect x="600" y="280" width="130" height="320" fill="#34495E" opacity="0.7"/>
  <rect x="710" y="330" width="95" height="270" fill="#2C3E50" opacity="0.7"/>
  <rect x="790" y="310" width="105" height="290" fill="#34495E" opacity="0.7"/>
  <rect x="880" y="350" width="85" height="250" fill="#2C3E50" opacity="0.7"/>
  <rect x="950" y="320" width="115" height="280" fill="#34495E" opacity="0.7"/>
  <rect x="1050" y="370" width="90" height="230" fill="#2C3E50" opacity="0.7"/>
  <rect x="1120" y="330" width="80" height="270" fill="#34495E" opacity="0.7"/>
  
  <!-- Windows on buildings -->
  <rect x="10" y="420" width="8" height="8" fill="#FFD700"/>
  <rect x="25" y="420" width="8" height="8" fill="#FFD700"/>
  <rect x="10" y="440" width="8" height="8" fill="#FFD700"/>
  <rect x="130" y="370" width="8" height="8" fill="#FFD700"/>
  <rect x="145" y="370" width="8" height="8" fill="#FFD700"/>
  <rect x="270" y="340" width="8" height="8" fill="#FFD700"/>
  <rect x="285" y="340" width="8" height="8" fill="#FFD700"/>
  <rect x="440" y="320" width="8" height="8" fill="#FFD700"/>
  <rect x="455" y="320" width="8" height="8" fill="#FFD700"/>
  <rect x="610" y="300" width="8" height="8" fill="#FFD700"/>
  <rect x="625" y="300" width="8" height="8" fill="#FFD700"/>
  
  <!-- PJ watermark pattern -->
  <text x="200" y="200" font-family="Arial, sans-serif" font-size="120" fill="#E8F4F8" opacity="0.3" font-weight="bold">PJ</text>
  <text x="500" y="150" font-family="Arial, sans-serif" font-size="80" fill="#E8F4F8" opacity="0.2" font-weight="bold">PALJAYA</text>
  <text x="800" y="220" font-family="Arial, sans-serif" font-size="60" fill="#E8F4F8" opacity="0.25" font-weight="bold">SISTEM</text>
  <text x="100" y="120" font-family="Arial, sans-serif" font-size="50" fill="#E8F4F8" opacity="0.2" font-weight="bold">RT</text>
  <text x="900" y="100" font-family="Arial, sans-serif" font-size="70" fill="#E8F4F8" opacity="0.15" font-weight="bold">PORTAL</text>
</svg>